<svg width="133" height="88" viewBox="0 0 133 88" fill="none" xmlns="http://www.w3.org/2000/svg">
<path d="M124.89 54.6414C125.226 55.6971 125.964 56.5755 126.943 57.0837C127.922 57.5919 129.061 57.6883 130.111 57.3518C132.272 56.6491 133.502 54.3068 132.804 52.0984L132.801 52.0883C132.505 51.1949 115.849 0.667969 66.4965 0.667969C17.1541 0.667969 0.494904 51.1949 0.202288 52.0917L0.198963 52.0984C-0.499325 54.3068 0.697741 56.6491 2.89236 57.3518C5.08698 58.0545 7.41461 56.8499 8.1129 54.6414C8.70811 52.7676 23.1062 9.03335 66.4998 9.03335C109.893 9.03335 124.292 52.7676 124.89 54.6414ZM44.8861 57.5526C44.8861 51.7841 47.1633 46.2519 51.2166 42.173C55.27 38.0941 60.7675 35.8026 66.4998 35.8026C72.2321 35.8026 77.7297 38.0941 81.783 42.173C85.8364 46.2519 88.1135 51.7841 88.1135 57.5526C88.1135 63.321 85.8364 68.8532 81.783 72.9322C77.7297 77.0111 72.2321 79.3026 66.4998 79.3026C60.7675 79.3026 55.27 77.0111 51.2166 72.9322C47.1633 68.8532 44.8861 63.321 44.8861 57.5526ZM66.4998 27.4372C58.5628 27.4372 50.9508 30.6101 45.3385 36.2578C39.7261 41.9055 36.5732 49.5655 36.5732 57.5526C36.5732 65.5397 39.7261 73.1996 45.3385 78.8474C50.9508 84.4951 58.5628 87.668 66.4998 87.668C74.4369 87.668 82.0488 84.4951 87.6612 78.8474C93.2735 73.1996 96.4265 65.5397 96.4265 57.5526C96.4265 49.5655 93.2735 41.9055 87.6612 36.2578C82.0488 30.6101 74.4369 27.4372 66.4998 27.4372Z" fill="#FFD235"/>
</svg>
