<svg width="64" height="64" viewBox="0 0 64 64" fill="none" xmlns="http://www.w3.org/2000/svg">
<g clip-path="url(#clip0_329_27511)">
<rect width="64" height="64" fill="url(#paint0_linear_329_27511)"/>
<path fill-rule="evenodd" clip-rule="evenodd" d="M17.5996 29.9734C17.5996 26.3891 17.5996 24.5969 18.2972 23.2279C18.9108 22.0236 19.8898 21.0445 21.0941 20.431C22.4631 19.7334 24.2553 19.7334 27.8396 19.7334H36.1596C39.7439 19.7334 41.5361 19.7334 42.9051 20.431C44.1094 21.0445 45.0885 22.0236 45.7021 23.2279C45.8252 23.4695 45.9266 23.7244 46.0101 24H41.5996C39.615 24 38.6227 24 37.8134 24.2376C35.8978 24.8001 34.3997 26.2982 33.8372 28.2138C33.5996 29.0232 33.5996 30.0154 33.5996 32C33.5996 33.9846 33.5996 34.9768 33.8372 35.7862C34.3997 37.7018 35.8978 39.1999 37.8134 39.7624C38.6227 40 39.615 40 41.5996 40H46.0101C45.9266 40.2756 45.8252 40.5306 45.7021 40.7723C45.0885 41.9765 44.1094 42.9556 42.9051 43.5692C41.5361 44.2667 39.7439 44.2667 36.1596 44.2667H27.8396C24.2553 44.2667 22.4631 44.2667 21.0941 43.5692C19.8898 42.9556 18.9108 41.9765 18.2972 40.7723C17.5996 39.4032 17.5996 37.6111 17.5996 34.0267V29.9734ZM35.7329 32C35.7329 30.0097 35.7329 29.0145 36.1026 28.2468C36.4696 27.4848 37.0844 26.87 37.8464 26.503C38.6141 26.1333 39.6092 26.1333 41.5995 26.1333H43.7329C45.7232 26.1333 46.7183 26.1333 47.486 26.503C48.248 26.87 48.8629 27.4848 49.2298 28.2468C49.5995 29.0145 49.5995 30.0097 49.5995 32C49.5995 33.9903 49.5995 34.9854 49.2298 35.7532C48.8629 36.5152 48.248 37.13 47.486 37.4969C46.7183 37.8666 45.7232 37.8666 43.7329 37.8666H41.5995C39.6092 37.8666 38.6141 37.8666 37.8464 37.4969C37.0844 37.13 36.4696 36.5152 36.1026 35.7532C35.7329 34.9854 35.7329 33.9903 35.7329 32ZM42.6661 32C42.6661 33.1782 41.711 34.1334 40.5328 34.1334C39.3546 34.1334 38.3994 33.1782 38.3994 32C38.3994 30.8218 39.3546 29.8667 40.5328 29.8667C41.711 29.8667 42.6661 30.8218 42.6661 32Z" fill="white"/>
</g>
<defs>
<linearGradient id="paint0_linear_329_27511" x1="32" y1="0" x2="32" y2="64" gradientUnits="userSpaceOnUse">
<stop stop-color="#60BFEF"/>
<stop offset="0.0666667" stop-color="#5FBFEF"/>
<stop offset="0.133333" stop-color="#5DBDF0"/>
<stop offset="0.2" stop-color="#58BBF0"/>
<stop offset="0.266667" stop-color="#52B9F1"/>
<stop offset="0.333333" stop-color="#4AB5F2"/>
<stop offset="0.4" stop-color="#40B1F4"/>
<stop offset="0.466667" stop-color="#36ACF6"/>
<stop offset="0.533333" stop-color="#2AA7F7"/>
<stop offset="0.6" stop-color="#20A2F9"/>
<stop offset="0.666667" stop-color="#169EFB"/>
<stop offset="0.733333" stop-color="#0E9AFC"/>
<stop offset="0.8" stop-color="#0898FD"/>
<stop offset="0.866667" stop-color="#0396FD"/>
<stop offset="0.933333" stop-color="#0194FE"/>
<stop offset="1" stop-color="#0094FE"/>
</linearGradient>
<clipPath id="clip0_329_27511">
<rect width="64" height="64" rx="14" fill="white"/>
</clipPath>
</defs>
</svg>
