<?xml version="1.0" encoding="UTF-8"?>
<!DOCTYPE svg PUBLIC "-//W3C//DTD SVG 1.1//EN" "http://www.w3.org/Graphics/SVG/1.1/DTD/svg11.dtd">
<svg xmlns="http://www.w3.org/2000/svg" version="1.1" width="162px" height="154px" style="shape-rendering:geometricPrecision; text-rendering:geometricPrecision; image-rendering:optimizeQuality; fill-rule:evenodd; clip-rule:evenodd" xmlns:xlink="http://www.w3.org/1999/xlink">
<g><path style="opacity:0.991" fill="#18223b" d="M 21.5,-0.5 C 26.5,-0.5 31.5,-0.5 36.5,-0.5C 36.5,6.83333 36.5,14.1667 36.5,21.5C 43.8333,21.5 51.1667,21.5 58.5,21.5C 58.5,26.5 58.5,31.5 58.5,36.5C 51.1667,36.5 43.8333,36.5 36.5,36.5C 36.5,43.8333 36.5,51.1667 36.5,58.5C 31.5,58.5 26.5,58.5 21.5,58.5C 21.5,51.1667 21.5,43.8333 21.5,36.5C 14.1667,36.5 6.83333,36.5 -0.5,36.5C -0.5,31.5 -0.5,26.5 -0.5,21.5C 6.83333,21.5 14.1667,21.5 21.5,21.5C 21.5,14.1667 21.5,6.83333 21.5,-0.5 Z"/></g>
<g><path style="opacity:0.997" fill="#18223c" d="M 144.5,153.5 C 106.5,153.5 68.5,153.5 30.5,153.5C 26.5212,151.685 23.6878,148.685 22,144.5C 21.5,118.169 21.3334,91.8354 21.5,65.5C 28.8333,65.5 36.1667,65.5 43.5,65.5C 43.5,58.1667 43.5,50.8333 43.5,43.5C 50.8333,43.5 58.1667,43.5 65.5,43.5C 65.5,36.1667 65.5,28.8333 65.5,21.5C 91.8354,21.3334 118.169,21.5 144.5,22C 153.317,26.4733 156.65,33.64 154.5,43.5C 131.831,43.3334 109.164,43.5 86.5,44C 80.5315,45.2979 76.3648,48.7979 74,54.5C 73.3333,76.5 73.3333,98.5 74,120.5C 76.108,126.468 80.2747,129.968 86.5,131C 109.164,131.5 131.831,131.667 154.5,131.5C 156.498,141.491 153.165,148.825 144.5,153.5 Z"/></g>
<g><path style="opacity:0.443" fill="#18233d" d="M 161.5,57.5 C 161.5,57.8333 161.5,58.1667 161.5,58.5C 137.167,58.5 112.833,58.5 88.5,58.5C 88.5,77.8333 88.5,97.1667 88.5,116.5C 112.833,116.5 137.167,116.5 161.5,116.5C 161.5,116.833 161.5,117.167 161.5,117.5C 136.833,117.5 112.167,117.5 87.5,117.5C 87.5,97.5 87.5,77.5 87.5,57.5C 112.167,57.5 136.833,57.5 161.5,57.5 Z"/></g>
<g><path style="opacity:0.997" fill="#18223c" d="M 161.5,58.5 C 161.5,77.8333 161.5,97.1667 161.5,116.5C 137.167,116.5 112.833,116.5 88.5,116.5C 88.5,97.1667 88.5,77.8333 88.5,58.5C 112.833,58.5 137.167,58.5 161.5,58.5 Z M 116.5,76.5 C 126.441,78.383 129.608,84.0497 126,93.5C 121.292,98.8121 116.126,99.4787 110.5,95.5C 104.468,86.5983 106.468,80.2649 116.5,76.5 Z"/></g>
</svg>
