<?xml version="1.0" encoding="UTF-8"?>
<!DOCTYPE svg PUBLIC "-//W3C//DTD SVG 1.1//EN" "http://www.w3.org/Graphics/SVG/1.1/DTD/svg11.dtd">
<svg xmlns="http://www.w3.org/2000/svg" version="1.1" width="558px" height="361px" style="shape-rendering:geometricPrecision; text-rendering:geometricPrecision; image-rendering:optimizeQuality; fill-rule:evenodd; clip-rule:evenodd" xmlns:xlink="http://www.w3.org/1999/xlink">
<g><path style="opacity:0.979" fill="#ffd134" d="M 557.5,215.5 C 557.5,217.833 557.5,220.167 557.5,222.5C 552.962,234.934 544.296,239.101 531.5,235C 529.04,233.542 526.873,231.709 525,229.5C 505.915,176.451 475.748,130.951 434.5,93C 368.17,39.4636 293.503,23.4636 210.5,45C 154.987,62.4984 110.487,94.9984 77,142.5C 58.007,169.816 42.6736,199.149 31,230.5C 22.5969,237.922 13.7635,238.422 4.5,232C 2.68589,229.521 1.01922,227.021 -0.5,224.5C -0.5,220.833 -0.5,217.167 -0.5,213.5C 23.3435,150.489 61.3435,97.6557 113.5,55C 178.526,7.65506 250.859,-9.0116 330.5,5C 390.466,17.0576 440.966,45.5576 482,90.5C 515.179,127.212 540.346,168.879 557.5,215.5 Z"/></g>
<g><path style="opacity:0.98" fill="#ffd134" d="M 297.5,360.5 C 284.833,360.5 272.167,360.5 259.5,360.5C 198.613,347.444 163.113,310.11 153,248.5C 150.112,196.105 170.612,155.939 214.5,128C 249.181,109.487 285.181,106.487 322.5,119C 374.124,141.042 401.457,180.209 404.5,236.5C 401.066,293.056 373.399,332.223 321.5,354C 313.461,356.507 305.461,358.674 297.5,360.5 Z M 270.5,146.5 C 315.97,145.833 347.137,166.5 364,208.5C 375.442,254.421 361.276,289.921 321.5,315C 278.228,334.545 240.394,327.045 208,292.5C 186.619,263.812 182.619,232.812 196,199.5C 211.564,168.764 236.398,151.098 270.5,146.5 Z"/></g>
</svg>
