<svg width="530" height="125" viewBox="0 0 530 125" fill="none" xmlns="http://www.w3.org/2000/svg">
<g filter="url(#filter0_d_1159_130)">
<g filter="url(#filter1_d_1159_130)">
<rect x="15" y="15" width="500" height="95" rx="28" fill="black"/>
</g>
<g filter="url(#filter2_d_1159_130)">
<path d="M232.673 84V40.3636H248.227C251.622 40.3636 254.434 40.9815 256.664 42.2173C258.895 43.4531 260.564 45.1435 261.672 47.2884C262.779 49.419 263.333 51.8196 263.333 54.4901C263.333 57.1747 262.772 59.5895 261.65 61.7344C260.542 63.8651 258.866 65.5554 256.622 66.8054C254.392 68.0412 251.586 68.6591 248.206 68.6591H237.51V63.0767H247.609C249.754 63.0767 251.494 62.7074 252.829 61.9688C254.164 61.2159 255.145 60.1932 255.77 58.9006C256.395 57.608 256.707 56.1378 256.707 54.4901C256.707 52.8423 256.395 51.3793 255.77 50.1009C255.145 48.8224 254.157 47.821 252.808 47.0966C251.473 46.3722 249.711 46.0099 247.524 46.0099H239.257V84H232.673ZM270.54 84V51.2727H276.698V56.4716H277.039C277.636 54.7102 278.687 53.3253 280.192 52.3168C281.712 51.294 283.431 50.7827 285.349 50.7827C285.746 50.7827 286.215 50.7969 286.755 50.8253C287.309 50.8537 287.742 50.8892 288.055 50.9318V57.0256C287.799 56.9545 287.344 56.8764 286.691 56.7912C286.038 56.6918 285.384 56.642 284.731 56.642C283.225 56.642 281.883 56.9616 280.704 57.6009C279.539 58.2259 278.616 59.0994 277.934 60.2216C277.252 61.3295 276.911 62.5937 276.911 64.0142V84H270.54ZM306.501 84.6605C303.277 84.6605 300.5 83.9716 298.17 82.5938C295.855 81.2017 294.065 79.2486 292.801 76.7344C291.551 74.206 290.926 71.2443 290.926 67.8494C290.926 64.4972 291.551 61.5426 292.801 58.9858C294.065 56.429 295.826 54.4332 298.085 52.9986C300.358 51.5639 303.014 50.8466 306.054 50.8466C307.9 50.8466 309.69 51.152 311.423 51.7628C313.156 52.3736 314.711 53.3324 316.089 54.6392C317.467 55.946 318.554 57.6435 319.349 59.7315C320.145 61.8054 320.542 64.3267 320.542 67.2955V69.554H294.527V64.7812H314.299C314.299 63.1051 313.958 61.6207 313.277 60.3281C312.595 59.0213 311.636 57.9915 310.4 57.2386C309.179 56.4858 307.744 56.1094 306.096 56.1094C304.306 56.1094 302.744 56.5497 301.409 57.4304C300.088 58.2969 299.065 59.4332 298.341 60.8395C297.63 62.2315 297.275 63.7443 297.275 65.3778V69.1065C297.275 71.294 297.659 73.1548 298.426 74.6889C299.207 76.223 300.294 77.3949 301.686 78.2045C303.078 79 304.704 79.3977 306.565 79.3977C307.772 79.3977 308.873 79.2273 309.868 78.8864C310.862 78.5312 311.721 78.0057 312.446 77.3097C313.17 76.6136 313.724 75.7543 314.108 74.7315L320.137 75.8182C319.654 77.5937 318.788 79.1491 317.538 80.4844C316.302 81.8054 314.747 82.8352 312.872 83.5739C311.011 84.2983 308.887 84.6605 306.501 84.6605ZM327.611 84V51.2727H333.726V56.5994H334.131C334.813 54.7955 335.928 53.3892 337.476 52.3807C339.024 51.358 340.878 50.8466 343.037 50.8466C345.224 50.8466 347.057 51.358 348.534 52.3807C350.026 53.4034 351.126 54.8097 351.837 56.5994H352.178C352.959 54.8523 354.202 53.4602 355.906 52.4233C357.611 51.3722 359.642 50.8466 362 50.8466C364.969 50.8466 367.391 51.777 369.266 53.6378C371.155 55.4986 372.099 58.304 372.099 62.054V84H365.729V62.6506C365.729 60.4347 365.125 58.8295 363.918 57.8352C362.71 56.8409 361.268 56.3438 359.592 56.3438C357.518 56.3438 355.906 56.983 354.756 58.2614C353.605 59.5256 353.03 61.152 353.03 63.1406V84H346.68V62.2457C346.68 60.4702 346.126 59.0426 345.018 57.9631C343.911 56.8835 342.469 56.3438 340.693 56.3438C339.486 56.3438 338.371 56.6634 337.348 57.3026C336.339 57.9276 335.523 58.8011 334.898 59.9233C334.287 61.0455 333.982 62.3452 333.982 63.8224V84H327.611ZM380.638 84V51.2727H387.009V84H380.638ZM383.855 46.223C382.748 46.223 381.796 45.8537 381 45.1151C380.219 44.3622 379.828 43.4673 379.828 42.4304C379.828 41.3793 380.219 40.4844 381 39.7457C381.796 38.9929 382.748 38.6165 383.855 38.6165C384.963 38.6165 385.908 38.9929 386.689 39.7457C387.485 40.4844 387.882 41.3793 387.882 42.4304C387.882 43.4673 387.485 44.3622 386.689 45.1151C385.908 45.8537 384.963 46.223 383.855 46.223ZM416.311 70.4276V51.2727H422.703V84H416.439V78.3324H416.098C415.345 80.0795 414.138 81.5355 412.476 82.7003C410.828 83.8509 408.776 84.4261 406.318 84.4261C404.216 84.4261 402.355 83.9645 400.736 83.0412C399.131 82.1037 397.866 80.7188 396.943 78.8864C396.034 77.054 395.58 74.7884 395.58 72.0895V51.2727H401.95V71.3224C401.95 73.5526 402.568 75.3281 403.804 76.6491C405.04 77.9702 406.645 78.6307 408.619 78.6307C409.813 78.6307 410.999 78.3324 412.178 77.7358C413.371 77.1392 414.358 76.2372 415.139 75.0298C415.935 73.8224 416.325 72.2884 416.311 70.4276ZM431.263 84V51.2727H437.378V56.5994H437.783C438.465 54.7955 439.58 53.3892 441.128 52.3807C442.676 51.358 444.53 50.8466 446.689 50.8466C448.877 50.8466 450.709 51.358 452.186 52.3807C453.678 53.4034 454.779 54.8097 455.489 56.5994H455.83C456.611 54.8523 457.854 53.4602 459.559 52.4233C461.263 51.3722 463.294 50.8466 465.652 50.8466C468.621 50.8466 471.043 51.777 472.918 53.6378C474.807 55.4986 475.752 58.304 475.752 62.054V84H469.381V62.6506C469.381 60.4347 468.777 58.8295 467.57 57.8352C466.363 56.8409 464.921 56.3438 463.245 56.3438C461.171 56.3438 459.559 56.983 458.408 58.2614C457.257 59.5256 456.682 61.152 456.682 63.1406V84H450.333V62.2457C450.333 60.4702 449.779 59.0426 448.671 57.9631C447.563 56.8835 446.121 56.3438 444.346 56.3438C443.138 56.3438 442.023 56.6634 441 57.3026C439.992 57.9276 439.175 58.8011 438.55 59.9233C437.939 61.0455 437.634 62.3452 437.634 63.8224V84H431.263Z" fill="url(#paint0_linear_1159_130)"/>
</g>
<g filter="url(#filter3_d_1159_130)">
<path d="M143.325 54.1491C142.913 52.8565 142.359 51.6989 141.663 50.6761C140.982 49.6392 140.165 48.7585 139.213 48.0341C138.261 47.2955 137.175 46.7344 135.953 46.3509C134.746 45.9673 133.418 45.7756 131.969 45.7756C129.511 45.7756 127.295 46.4077 125.321 47.6719C123.347 48.9361 121.784 50.7898 120.634 53.233C119.497 55.6619 118.929 58.6378 118.929 62.1605C118.929 65.6974 119.504 68.6875 120.655 71.1307C121.805 73.5739 123.382 75.4276 125.385 76.6918C127.388 77.956 129.668 78.5881 132.224 78.5881C134.597 78.5881 136.663 78.1051 138.425 77.1392C140.2 76.1733 141.571 74.8097 142.537 73.0483C143.517 71.2727 144.007 69.1847 144.007 66.7841L145.712 67.1037H133.226V61.6705H150.378V66.6349C150.378 70.2997 149.597 73.4815 148.034 76.1804C146.486 78.8651 144.341 80.9389 141.599 82.402C138.872 83.8651 135.747 84.5966 132.224 84.5966C128.276 84.5966 124.81 83.6875 121.827 81.8693C118.858 80.0511 116.543 77.473 114.881 74.1349C113.219 70.7827 112.388 66.8054 112.388 62.2031C112.388 58.723 112.871 55.598 113.837 52.8281C114.803 50.0582 116.159 47.7074 117.906 45.7756C119.668 43.8295 121.734 42.3452 124.107 41.3224C126.493 40.2855 129.099 39.767 131.926 39.767C134.284 39.767 136.479 40.1151 138.51 40.8111C140.555 41.5071 142.374 42.4943 143.964 43.7727C145.57 45.0511 146.898 46.571 147.949 48.3324C149 50.0795 149.71 52.0185 150.08 54.1491H143.325ZM172.329 84.6605C169.105 84.6605 166.328 83.9716 163.998 82.5938C161.683 81.2017 159.893 79.2486 158.629 76.7344C157.379 74.206 156.754 71.2443 156.754 67.8494C156.754 64.4972 157.379 61.5426 158.629 58.9858C159.893 56.429 161.654 54.4332 163.913 52.9986C166.186 51.5639 168.842 50.8466 171.882 50.8466C173.728 50.8466 175.518 51.152 177.251 51.7628C178.984 52.3736 180.539 53.3324 181.917 54.6392C183.295 55.946 184.382 57.6435 185.177 59.7315C185.973 61.8054 186.37 64.3267 186.37 67.2955V69.554H160.355V64.7812H180.127C180.127 63.1051 179.787 61.6207 179.105 60.3281C178.423 59.0213 177.464 57.9915 176.228 57.2386C175.007 56.4858 173.572 56.1094 171.924 56.1094C170.135 56.1094 168.572 56.5497 167.237 57.4304C165.916 58.2969 164.893 59.4332 164.169 60.8395C163.458 62.2315 163.103 63.7443 163.103 65.3778V69.1065C163.103 71.294 163.487 73.1548 164.254 74.6889C165.035 76.223 166.122 77.3949 167.514 78.2045C168.906 79 170.532 79.3977 172.393 79.3977C173.6 79.3977 174.701 79.2273 175.696 78.8864C176.69 78.5312 177.549 78.0057 178.274 77.3097C178.998 76.6136 179.552 75.7543 179.936 74.7315L185.966 75.8182C185.483 77.5937 184.616 79.1491 183.366 80.4844C182.13 81.8054 180.575 82.8352 178.7 83.5739C176.839 84.2983 174.716 84.6605 172.329 84.6605ZM208.716 51.2727V56.3864H190.839V51.2727H208.716ZM195.634 43.4318H202.004V74.3906C202.004 75.6264 202.189 76.5568 202.558 77.1818C202.928 77.7926 203.403 78.2116 203.986 78.4389C204.582 78.652 205.229 78.7585 205.925 78.7585C206.436 78.7585 206.884 78.723 207.267 78.652C207.651 78.581 207.949 78.5241 208.162 78.4815L209.312 83.7443C208.943 83.8864 208.418 84.0284 207.736 84.1705C207.054 84.3267 206.202 84.4119 205.179 84.4261C203.503 84.4545 201.94 84.1562 200.491 83.5312C199.043 82.9062 197.871 81.9403 196.976 80.6335C196.081 79.3267 195.634 77.6861 195.634 75.7116V43.4318Z" fill="url(#paint1_linear_1159_130)"/>
</g>
<path d="M57.0876 42H61.7641L57.0742 55.4972H49L55.0892 43.2417C55.275 42.8686 55.5604 42.5548 55.9133 42.3355C56.2662 42.1162 56.6729 42 57.0876 42ZM49.1609 59.9962L62.6359 81.0833L56.9535 59.9962H49.1609ZM61.5853 59.9962L68.4256 85.3934C68.5468 85.854 68.816 86.2612 69.1912 86.5518C69.5664 86.8424 70.0265 87 70.5 87C70.9735 87 71.4336 86.8424 71.8088 86.5518C72.184 86.2612 72.4532 85.854 72.5744 85.3934L79.4326 59.9962H61.5853ZM84.0644 59.9962L78.3686 81.0743L91.8391 59.9962H84.0644ZM92 55.4972H83.9392L79.2449 42H83.9123C84.3279 41.9992 84.7355 42.1149 85.0893 42.3343C85.4431 42.5536 85.7291 42.8679 85.9153 43.2417L92 55.4972ZM79.2046 55.4972H61.8133L66.4986 42H74.5014L79.2046 55.4972Z" fill="url(#paint2_linear_1159_130)"/>
</g>
<defs>
<filter id="filter0_d_1159_130" x="11" y="15" width="508" height="103" filterUnits="userSpaceOnUse" color-interpolation-filters="sRGB">
<feFlood flood-opacity="0" result="BackgroundImageFix"/>
<feColorMatrix in="SourceAlpha" type="matrix" values="0 0 0 0 0 0 0 0 0 0 0 0 0 0 0 0 0 0 127 0" result="hardAlpha"/>
<feOffset dy="4"/>
<feGaussianBlur stdDeviation="2"/>
<feComposite in2="hardAlpha" operator="out"/>
<feColorMatrix type="matrix" values="0 0 0 0 0 0 0 0 0 0 0 0 0 0 0 0 0 0 0.25 0"/>
<feBlend mode="normal" in2="BackgroundImageFix" result="effect1_dropShadow_1159_130"/>
<feBlend mode="normal" in="SourceGraphic" in2="effect1_dropShadow_1159_130" result="shape"/>
</filter>
<filter id="filter1_d_1159_130" x="0" y="0" width="530" height="125" filterUnits="userSpaceOnUse" color-interpolation-filters="sRGB">
<feFlood flood-opacity="0" result="BackgroundImageFix"/>
<feColorMatrix in="SourceAlpha" type="matrix" values="0 0 0 0 0 0 0 0 0 0 0 0 0 0 0 0 0 0 127 0" result="hardAlpha"/>
<feMorphology radius="5" operator="dilate" in="SourceAlpha" result="effect1_dropShadow_1159_130"/>
<feOffset/>
<feGaussianBlur stdDeviation="5"/>
<feComposite in2="hardAlpha" operator="out"/>
<feColorMatrix type="matrix" values="0 0 0 0 1 0 0 0 0 1 0 0 0 0 1 0 0 0 1 0"/>
<feBlend mode="normal" in2="BackgroundImageFix" result="effect1_dropShadow_1159_130"/>
<feBlend mode="normal" in="SourceGraphic" in2="effect1_dropShadow_1159_130" result="shape"/>
</filter>
<filter id="filter2_d_1159_130" x="231.673" y="38.6165" width="245.079" height="48.0441" filterUnits="userSpaceOnUse" color-interpolation-filters="sRGB">
<feFlood flood-opacity="0" result="BackgroundImageFix"/>
<feColorMatrix in="SourceAlpha" type="matrix" values="0 0 0 0 0 0 0 0 0 0 0 0 0 0 0 0 0 0 127 0" result="hardAlpha"/>
<feOffset dy="1"/>
<feGaussianBlur stdDeviation="0.5"/>
<feComposite in2="hardAlpha" operator="out"/>
<feColorMatrix type="matrix" values="0 0 0 0 1 0 0 0 0 0.823529 0 0 0 0 0.207843 0 0 0 1 0"/>
<feBlend mode="normal" in2="BackgroundImageFix" result="effect1_dropShadow_1159_130"/>
<feBlend mode="normal" in="SourceGraphic" in2="effect1_dropShadow_1159_130" result="shape"/>
</filter>
<filter id="filter3_d_1159_130" x="111.388" y="39.7671" width="98.9248" height="46.8934" filterUnits="userSpaceOnUse" color-interpolation-filters="sRGB">
<feFlood flood-opacity="0" result="BackgroundImageFix"/>
<feColorMatrix in="SourceAlpha" type="matrix" values="0 0 0 0 0 0 0 0 0 0 0 0 0 0 0 0 0 0 127 0" result="hardAlpha"/>
<feOffset dy="1"/>
<feGaussianBlur stdDeviation="0.5"/>
<feComposite in2="hardAlpha" operator="out"/>
<feColorMatrix type="matrix" values="0 0 0 0 1 0 0 0 0 0.823529 0 0 0 0 0.207843 0 0 0 1 0"/>
<feBlend mode="normal" in2="BackgroundImageFix" result="effect1_dropShadow_1159_130"/>
<feBlend mode="normal" in="SourceGraphic" in2="effect1_dropShadow_1159_130" result="shape"/>
</filter>
<linearGradient id="paint0_linear_1159_130" x1="212" y1="62.5" x2="481" y2="62.5" gradientUnits="userSpaceOnUse">
<stop stop-color="#FFD235"/>
<stop offset="1" stop-color="#2B3B64"/>
</linearGradient>
<linearGradient id="paint1_linear_1159_130" x1="109" y1="62.5" x2="212" y2="62.5" gradientUnits="userSpaceOnUse">
<stop stop-color="#FFD235"/>
</linearGradient>
<linearGradient id="paint2_linear_1159_130" x1="70.5" y1="42" x2="70.5" y2="87" gradientUnits="userSpaceOnUse">
<stop stop-color="#FFD235"/>
<stop offset="1" stop-color="#213871"/>
</linearGradient>
</defs>
</svg>
