<svg width="41" height="49" viewBox="0 0 41 49" fill="none" xmlns="http://www.w3.org/2000/svg">
<path d="M28.9509 31.4098H30.73V35.8102L35 35.8017V37.4738H30.73V42H28.9509V37.4738H24.6809V35.8017L28.9509 35.8102V31.4098Z" fill="#1F2937"/>
<path d="M24.0982 28.5271C22.043 31.093 20.6013 34.2362 20.0491 37.6681H6V35.2626C6 30.4515 15.2025 28.046 19.8037 28.046C21 28.046 22.5031 28.2064 24.0982 28.5271ZM19.8037 22.4331C21.6442 22.4331 23.3927 21.6313 24.681 20.3163C25.9387 18.9692 26.7056 17.141 26.7056 15.2166C26.7056 13.2921 25.9387 11.4639 24.681 10.1169C23.3786 8.77767 21.6303 8.01884 19.8037 8C17.9632 8 16.2147 8.80184 14.9264 10.1169C13.6687 11.4639 12.9019 13.2921 12.9019 15.2166C12.9019 17.141 13.6687 18.9692 14.9264 20.3163C16.2147 21.6313 17.9632 22.4331 19.8037 22.4331Z" fill="#1F2937"/>
<path d="M0 10C0 4.47715 4.47715 0 10 0H31C36.5228 0 41 4.47715 41 10V39C41 44.5228 36.5228 49 31 49H10C4.47715 49 0 44.5228 0 39V10Z" fill="#1F2937" fill-opacity="0.86"/>
<path d="M18.1786 21.9375V23.25H22.8214V21.9375C22.8214 20.7289 21.7826 19.75 20.5 19.75C19.2174 19.75 18.1786 20.7289 18.1786 21.9375ZM16.3214 23.25V21.9375C16.3214 19.7637 18.1931 18 20.5 18C22.8069 18 24.6786 19.7637 24.6786 21.9375V23.25H25.1429C26.1672 23.25 27 24.0348 27 25V30.25C27 31.2152 26.1672 32 25.1429 32H15.8571C14.8328 32 14 31.2152 14 30.25V25C14 24.0348 14.8328 23.25 15.8571 23.25H16.3214Z" fill="white"/>
</svg>
