<svg width="35" height="35" viewBox="0 0 35 35" fill="none" xmlns="http://www.w3.org/2000/svg">
<path fill-rule="evenodd" clip-rule="evenodd" d="M26.2927 9.39086C28.8859 9.39086 30.9881 7.28865 30.9881 4.69544C30.9881 2.10222 28.8859 0 26.2927 0C23.6995 0 21.5973 2.10222 21.5973 4.69544C21.5973 5.31621 21.7178 5.90883 21.9365 6.45123L18.8735 9.5143C16.8703 7.57047 14.138 6.37381 11.1262 6.37381C4.98137 6.37381 0 11.3552 0 17.5C0 23.6448 4.98137 28.6262 11.1262 28.6262C14.1379 28.6262 16.8701 27.4296 18.8733 25.4858L21.9364 28.5491C21.7176 29.0914 21.5973 29.6839 21.5973 30.3046C21.5973 32.8978 23.6995 35 26.2927 35C28.8859 35 30.9881 32.8978 30.9881 30.3046C30.9881 27.7114 28.8859 25.6091 26.2927 25.6091C25.3865 25.6091 24.5403 25.8659 23.8228 26.3105L20.8523 23.34C20.7995 23.2873 20.7438 23.2394 20.6854 23.1965C21.4444 21.9259 21.957 20.4912 22.1576 18.9583L25.8401 18.9585C26.4536 20.8377 28.2205 22.1954 30.3046 22.1954C32.8978 22.1954 35 20.0932 35 17.5C35 14.9068 32.8978 12.8046 30.3046 12.8046C28.2204 12.8046 26.4534 14.1625 25.8399 16.0418L22.1576 16.0417C21.9571 14.509 21.4444 13.0744 20.6857 11.8038C20.7439 11.7609 20.7995 11.7131 20.8523 11.6604L23.823 8.68963C24.5404 9.13421 25.3867 9.39086 26.2927 9.39086ZM17.295 23.9689C15.6908 25.4991 13.5182 26.4387 11.1262 26.4387C8.73453 26.4387 6.56225 25.4994 4.95811 23.9696C5.2059 22.7761 5.79692 21.6702 6.67186 20.7954C7.85334 19.6139 9.45578 18.9502 11.1266 18.9502C12.7975 18.9502 14.3999 19.6139 15.5814 20.7954C16.4561 21.6701 17.0472 22.7757 17.295 23.9689ZM14.5787 13.9271C14.5787 15.8341 13.0327 17.3801 11.1256 17.3801C9.21846 17.3801 7.67245 15.8341 7.67245 13.9271C7.67245 12.0199 9.21846 10.4739 11.1256 10.4739C13.0327 10.4739 14.5787 12.0199 14.5787 13.9271Z" fill="#1F2937"/>
</svg>
